<?xml version="1.0" encoding="utf-8"?>
<!-- Generator: Adobe Illustrator 21.0.2, SVG Export Plug-In . SVG Version: 6.00 Build 0)  -->
<svg version="1.1" id="Layer_1" xmlns="http://www.w3.org/2000/svg" xmlns:xlink="http://www.w3.org/1999/xlink" x="0px" y="0px"
	 viewBox="0 0 75 58.9" style="enable-background:new 0 0 75 58.9;" xml:space="preserve">
<style type="text/css">
	.st0{fill:#FFFFFF;}
</style>
<g>
	<path class="st0" d="M37.7,58.9c-13.6,0-24.2-5.3-28.3-14.1l-1.3-3.5l-0.6-2.8l-0.2-3.9c0.3-3.7,1.4-5.4,3.2-8.1l0.2-0.3
		C3.9,11.7,10.9,0.9,11.2,0.4C11.4,0.2,11.7,0,12,0c8.9,0,17.6,8.9,21.3,13.2l4.4-0.3c0,0,0.1,0,0.1,0l4.4,0.3
		C45.9,8.9,54.6,0,63.5,0c0.3,0,0.6,0.2,0.8,0.4c0.3,0.5,7.3,11.3,0.4,25.9l0.2,0.3c1.8,2.7,2.9,4.4,3.2,8L68,38.4l-0.5,2.8
		l-1.3,3.6C61.9,53.6,51.3,58.9,37.7,58.9z M12.5,1.9C11.3,4,6.6,13.7,12.6,26c0.1,0.3,0.1,0.6-0.1,0.9l-0.5,0.7
		c-1.7,2.6-2.7,4-2.9,7.1l0.1,3.6l0.5,2.5l1.2,3.3c3.8,8.1,13.8,12.9,26.6,12.9c12.9,0,22.8-4.9,26.7-13l1.3-3.4l0.5-2.5l0.1-3.6
		c-0.2-3-1.2-4.4-2.9-7l-0.5-0.7c-0.2-0.3-0.2-0.6-0.1-0.9c6-12.3,1.3-22,0.2-24.1c-8.5,0.4-17.2,9.9-19.6,12.9
		c-0.2,0.2-0.5,0.4-0.8,0.3l-4.8-0.3l-4.8,0.3c-0.3,0-0.6-0.1-0.8-0.3C29.6,11.8,21,2.2,12.5,1.9z"/>
	<path class="st0" d="M26.7,24.8c2,0,3.7,1.6,3.7,3.7s-1.6,3.7-3.7,3.7S23,30.6,23,28.5S24.7,24.8,26.7,24.8"/>
	<path class="st0" d="M48.8,24.8c2,0,3.7,1.6,3.7,3.7s-1.6,3.7-3.7,3.7c-2,0-3.7-1.6-3.7-3.7S46.7,24.8,48.8,24.8"/>
	<path class="st0" d="M34,35.9h7.4L38.8,41c0.7,2.4,2.8,4.1,5.3,4.1c3,0,5.5-2.5,5.5-5.5h1.8c0,4.1-3.3,7.4-7.4,7.4
		c-2.8,0-5.2-1.5-6.4-3.7l0,0l0,0c-1.3,2.2-3.7,3.7-6.4,3.7c-4.1,0-7.4-3.3-7.4-7.4h1.8c0,3,2.5,5.5,5.5,5.5c2.5,0,4.6-1.7,5.3-4.1
		L34,35.9z"/>
	<path class="st0" d="M0.9,38.4c-0.4,0-0.8-0.3-0.9-0.8c-0.1-0.5,0.3-1,0.8-1.1l11.7-1.8c0.5-0.1,1,0.3,1.1,0.8
		c0.1,0.5-0.3,1-0.8,1.1L1.1,38.4C1,38.4,1,38.4,0.9,38.4z"/>
	<path class="st0" d="M3.2,46.9c-0.3,0-0.7-0.2-0.8-0.5c-0.2-0.5,0-1,0.4-1.2l10.6-5.3c0.4-0.2,1-0.1,1.2,0.4c0.2,0.5,0,1-0.4,1.2
		L3.6,46.8C3.5,46.9,3.4,46.9,3.2,46.9z"/>
	<path class="st0" d="M74.1,38.4c0,0-0.1,0-0.1,0l-11.7-1.8c-0.5-0.1-0.8-0.5-0.8-1.1c0.1-0.5,0.5-0.8,1.1-0.8l11.7,1.8
		c0.5,0.1,0.8,0.5,0.8,1.1C74.9,38.1,74.5,38.4,74.1,38.4z"/>
	<path class="st0" d="M71.8,46.9c-0.1,0-0.3,0-0.4-0.1l-10.6-5.3c-0.5-0.2-0.6-0.8-0.4-1.2c0.2-0.5,0.8-0.6,1.2-0.4l10.6,5.3
		c0.5,0.2,0.6,0.8,0.4,1.2C72.4,46.7,72.1,46.9,71.8,46.9z"/>
</g>
</svg>
