<?xml version="1.0" encoding="utf-8"?>
<!-- Generator: Adobe Illustrator 21.0.2, SVG Export Plug-In . SVG Version: 6.00 Build 0)  -->
<svg version="1.1" id="Capa_1" xmlns="http://www.w3.org/2000/svg" xmlns:xlink="http://www.w3.org/1999/xlink" x="0px" y="0px"
	 viewBox="0 0 75 70.6" style="enable-background:new 0 0 75 70.6;" xml:space="preserve">
<style type="text/css">
	.st0{fill:#FFFFFF;}
</style>
<g>
	<path class="st0" d="M27,32.1c-1.8,0-3.3-1.5-3.3-3.3c0-1.8,1.5-3.3,3.3-3.3c1.8,0,3.3,1.5,3.3,3.3C30.2,30.7,28.8,32.1,27,32.1z
		 M27,27.3c-0.8,0-1.5,0.7-1.5,1.5s0.7,1.5,1.5,1.5c0.8,0,1.5-0.7,1.5-1.5S27.8,27.3,27,27.3z"/>
	<path class="st0" d="M22,31.8L22,31.8c-0.5-0.1-0.9-0.5-0.9-1c0.4-4.5,4-5.4,5.9-5.3c0.5,0.1,0.9,0.5,0.8,1c-0.1,0.5-0.5,0.8-1,0.8
		c-0.4,0-3.7-0.1-4,3.6C22.9,31.4,22.5,31.8,22,31.8z"/>
	<path class="st0" d="M32.6,60.6c-1.2,0-16.2-0.6-20.6-28.4c-0.1-0.5,0.2-1,0.7-1c0.5-0.1,1,0.2,1,0.7C18,58.8,32.5,58.8,32.6,58.8
		c2.1,0,3.1-0.5,3.6-1c0.5-0.5,0.4-1,0.4-1v-0.1v-2.6c0-0.5,0.4-0.9,0.9-0.9c0.5,0,0.9,0.4,0.9,0.9v2.6c0,0.3,0,1.3-0.9,2.3
		C36.5,60.1,34.9,60.6,32.6,60.6L32.6,60.6z"/>
	<path class="st0" d="M23.9,4.7c-0.4,0-0.7-0.2-0.8-0.5c-0.2-0.5,0-1,0.4-1.2c8.3-3.9,14-2.9,14.3-2.8c0.5,0.1,0.8,0.5,0.7,1
		c-0.1,0.5-0.5,0.8-1,0.8c-0.1,0-5.5-0.9-13.2,2.7C24.1,4.7,24,4.7,23.9,4.7z"/>
	<path class="st0" d="M7.2,42.7c-0.2,0-0.5-0.1-0.6-0.1c-0.5-0.1-0.8-0.5-1.4-1.5c-1.2-2-2.9-6.7-4-11.5c-1-4.1-1.8-9.6-0.5-13
		C2.2,12.8,7.8,9.3,12.1,7c4.6-2.4,9.4-4.3,10.4-4.3l0,0c1-0.1,1.5,0.4,1.7,0.7C25,4.4,24.4,6,24.1,6.5L10.8,39
		C10,40.9,9.1,42.1,8,42.5C7.7,42.7,7.4,42.7,7.2,42.7z M22.6,4.4c-0.6,0.1-5.1,1.7-9.8,4.2c-5.7,3-9.5,6.1-10.5,8.7
		c-2.5,6.1,3.4,22,4.8,23.6c0.3,0,1.1-0.5,2-2.6L22.6,5.8c0.2-0.5,0.4-1.1,0.3-1.4C22.8,4.4,22.7,4.4,22.6,4.4z"/>
	<path class="st0" d="M37.6,54.3c-3.3,0-6.7-3.4-6.7-5.9c0-2.6,3.4-2.6,6.7-2.6c2.7,0,6.7,0,6.7,2.7C44.3,50.9,40.9,54.3,37.6,54.3z
		 M37.6,47.6c-2,0-4.9,0-4.9,0.8c0,1.2,2.4,4.1,4.9,4.1s4.9-2.8,4.9-4C42.6,48.1,41.9,47.6,37.6,47.6z"/>
	<path class="st0" d="M37.5,70.6c-1.5,0-2.9-0.5-3.9-1.7c-2.7-2.9-2.4-8.6-2.4-8.8c0.1-0.5,0.5-0.8,1-0.8c0.5,0.1,0.9,0.5,0.8,1
		c0,0.1-0.3,5.2,1.9,7.5c0.5,0.5,1,0.8,1.7,1V55.8c0-0.5,0.4-0.9,0.9-0.9c0.5,0,0.9,0.4,0.9,0.9v13.9C38.4,70.3,38,70.6,37.5,70.6z"
		/>
	<path class="st0" d="M48.1,32.1c-1.8,0-3.3-1.5-3.3-3.3c0-1.8,1.5-3.3,3.3-3.3s3.3,1.5,3.3,3.3C51.4,30.7,49.9,32.1,48.1,32.1z
		 M48.1,27.3c-0.8,0-1.5,0.7-1.5,1.5s0.7,1.5,1.5,1.5s1.5-0.7,1.5-1.5S48.9,27.3,48.1,27.3z"/>
	<path class="st0" d="M53,31.8c-0.5,0-0.8-0.4-0.9-0.8c-0.3-3.7-3.6-3.6-4-3.6c-0.5,0.1-0.9-0.4-1-0.8c-0.1-0.5,0.4-0.9,0.8-1
		c1.9-0.1,5.5,0.8,5.9,5.3C54,31.3,53.6,31.7,53,31.8C53.1,31.8,53,31.8,53,31.8z"/>
	<path class="st0" d="M42.4,60.6L42.4,60.6c-2.3,0-3.9-0.5-4.9-1.6c-0.9-1-0.9-2-0.9-2.3v-2.6c0-0.5,0.4-0.9,0.9-0.9
		c0.5,0,0.9,0.4,0.9,0.9v2.6v0.1c0,0,0,0.5,0.4,1c0.4,0.5,1.4,1,3.5,1c0.6,0,14.6-0.2,18.9-26.9c0.1-0.5,0.5-0.8,1-0.7
		c0.5,0.1,0.8,0.5,0.7,1C58.7,60.1,43.7,60.6,42.4,60.6z"/>
	<path class="st0" d="M51.2,4.7c-0.1,0-0.2,0-0.4-0.1C43,1,37.7,1.9,37.6,1.9c-0.5,0.1-1-0.2-1-0.7c-0.1-0.5,0.2-1,0.7-1.1
		c0.2-0.1,5.9-1,14.3,2.8c0.5,0.2,0.7,0.7,0.4,1.2C51.8,4.5,51.5,4.7,51.2,4.7z"/>
	<path class="st0" d="M67.9,42.7c-0.2,0-0.5-0.1-0.8-0.2c-1.1-0.4-2-1.6-2.9-3.5L50.9,6.5C50.7,6,50,4.4,50.8,3.4
		C51,3,51.5,2.6,52.5,2.7c1,0.1,5.8,1.9,10.4,4.3c4.3,2.3,9.9,5.8,11.4,9.6c1.4,3.3,0.5,8.9-0.5,13c-1.1,4.8-2.9,9.4-4,11.5
		c-0.5,1-0.9,1.4-1.4,1.5C68.4,42.7,68.2,42.7,67.9,42.7z M52.2,4.4c-0.1,0.2,0.1,0.9,0.3,1.4l13.4,32.6c0.9,2.1,1.7,2.6,2,2.6
		c1.4-1.6,7.3-17.5,4.8-23.6c-1.1-2.6-4.8-5.6-10.5-8.7c-4.8-2.5-9.2-4.1-9.8-4.2C52.4,4.4,52.3,4.4,52.2,4.4z"/>
	<path class="st0" d="M37.6,70.6c-0.5,0-0.9-0.4-0.9-0.9V55.8c0-0.5,0.4-0.9,0.9-0.9c0.5,0,0.9,0.4,0.9,0.9v13
		c0.7-0.1,1.2-0.5,1.7-1c2.2-2.3,1.9-7.4,1.9-7.5c-0.1-0.5,0.4-0.9,0.8-1c0.5,0,0.9,0.4,1,0.8c0,0.2,0.4,5.9-2.4,8.8
		C40.4,70.1,39.1,70.6,37.6,70.6z"/>
</g>
</svg>
