<?xml version="1.0" encoding="utf-8"?>
<!-- Generator: Adobe Illustrator 21.0.2, SVG Export Plug-In . SVG Version: 6.00 Build 0)  -->
<svg version="1.1" id="Layer_1" xmlns="http://www.w3.org/2000/svg" xmlns:xlink="http://www.w3.org/1999/xlink" x="0px" y="0px"
	 viewBox="0 0 24 24" style="enable-background:new 0 0 24 24;" xml:space="preserve">
<style type="text/css">
	.st0{fill:#FFFFFF;}
</style>
<g>
	<path class="st0" d="M19.1,7.5c-1.9,0.6-4.3,0.9-7.1,0.9S6.9,8.1,4.9,7.5C3,6.9,2,6.1,2,5.2c0-0.9,1-1.6,2.9-2.3S9.2,2,12,2
		c2.8,0,5.1,0.3,7.1,0.9S22,4.3,22,5.2C22,6.1,21,6.9,19.1,7.5z M12,9.3c2.2,0,4.2-0.2,6-0.6c1.8-0.4,3.1-1,3.9-1.8l-2.7,3.3
		l0.6,0.6c0.5,0.5,0.8,1.1,0.8,1.9c0,0.7-0.3,1.4-0.8,1.9L18,16.3c-0.5,0.5-1.2,0.8-1.9,0.8s-1.4-0.3-1.9-0.8l-0.2-0.1l-0.7,0.7v3.7
		c0,0.4-0.1,0.7-0.4,1c-0.3,0.3-0.6,0.4-1,0.4c-0.4,0-0.7-0.1-1-0.4c-0.3-0.3-0.4-0.6-0.4-1v-3.7L2.2,7C3,7.7,4.3,8.3,6.1,8.7
		C7.9,9.1,9.8,9.3,12,9.3z M18.8,13.5c0.2-0.2,0.4-0.5,0.4-0.8c0-0.3-0.1-0.6-0.4-0.8l-0.5-0.5l-3.1,3.7l0.2,0.2
		c0.2,0.2,0.5,0.4,0.8,0.4c0.3,0,0.6-0.1,0.8-0.4L18.8,13.5z"/>
</g>
</svg>
