<svg id="Layer_1" data-name="Layer 1" xmlns="http://www.w3.org/2000/svg" viewBox="0 0 359.47 539.21"><defs><style>.cls-1{fill:#fff;}</style></defs><title>location</title><path d="M52.74,52.73Q105.47,0,179.74,0t127,52.73q52.73,52.74,52.74,127a177.2,177.2,0,0,1-23.09,88L189.72,533.59q-3.13,5.62-10,5.62t-10-5.62L23.09,267.73Q0,228.41,0,179.74,0,105.48,52.74,52.73Z"/><path class="cls-1" d="M74.67,284.81q43.26,43.26,105.07,43.26t105.07-43.26q43.26-43.27,43.26-105.07T284.81,74.66Q241.54,31.4,179.74,31.4T74.67,74.66Q31.4,117.93,31.4,179.73T74.67,284.81Z"/></svg>